<svg version="1.0" xmlns="http://www.w3.org/2000/svg"
 width="1857.000000pt" height="467.000000pt" viewBox="0 0 1857.000000 467.000000"
 preserveAspectRatio="xMidYMid meet">

<g transform="translate(0.000000,467.000000) scale(0.100000,-0.100000)">
<path d="M50 2350 l0 -2300 1280 0 1280 0 0 470 0 470 -845 0 -845 0 0 1830 0
1830 -435 0 -435 0 0 -2300z"/>
<path d="M3440 2350 l0 -2300 1280 0 1280 0 0 470 0 470 -845 0 -845 0 0 445
0 445 845 0 845 0 0 470 0 470 -845 0 -845 0 0 465 0 465 845 0 845 0 0 450 0
450 -1280 0 -1280 0 0 -2300z"/>
<path d="M6972 2353 l3 -2298 1300 0 1300 0 3 467 2 468 -850 0 -850 0 0 445
0 445 848 2 847 3 3 468 2 467 -850 0 -850 0 0 465 0 465 850 0 850 0 0 450 0
450 -1305 0 -1305 0 2 -2297z"/>
<path d="M10522 3028 l3 -1623 23 -108 c129 -606 564 -1059 1156 -1202 697
-169 1431 181 1736 828 56 120 83 194 118 337 l26 105 3 1643 3 1642 -445 0
-445 0 0 -1577 c0 -1762 5 -1638 -73 -1787 -160 -309 -536 -431 -852 -277
-180 88 -305 245 -349 438 -14 65 -16 227 -16 1637 l0 1566 -445 0 -445 0 2
-1622z"/>
<path d="M14450 2350 l0 -2300 433 2 432 3 5 1116 5 1116 444 -1035 c245 -568
457 -1053 471 -1076 31 -48 105 -101 164 -117 63 -17 163 -7 220 21 95 48 103
62 365 677 134 312 329 769 435 1016 l191 447 5 -1082 5 -1083 450 0 450 0 3
2298 2 2297 -454 0 c-423 0 -454 -1 -461 -17 -10 -27 -1084 -2840 -1107 -2902
l-21 -54 -594 1486 -595 1487 -424 0 -424 0 0 -2300z"/>
</g>
</svg>
