<svg width="844" height="33" viewBox="0 0 844 33" fill="none" xmlns="http://www.w3.org/2000/svg">
<path d="M15.885 22.785C13.5283 22.785 11.79 22.12 10.67 20.79C9.57333 19.46 9.025 17.6983 9.025 15.505C9.025 13.2883 9.63167 11.5033 10.845 10.15C12.0817 8.79667 13.7967 8.12 15.99 8.12C16.7133 8.12 17.4367 8.20167 18.16 8.365C18.9067 8.52833 19.6183 8.77333 20.295 9.1L19.245 11.55C18.755 11.3167 18.23 11.13 17.67 10.99C17.1333 10.8267 16.5617 10.745 15.955 10.745C14.835 10.745 13.9483 11.165 13.295 12.005C12.6417 12.845 12.315 14.0233 12.315 15.54C12.315 18.6433 13.5983 20.195 16.165 20.195C16.795 20.195 17.4017 20.125 17.985 19.985C18.5683 19.845 19.14 19.67 19.7 19.46V22.085C19.1167 22.3183 18.51 22.4933 17.88 22.61C17.2733 22.7267 16.6083 22.785 15.885 22.785ZM15.5 30.66C13.4 30.66 11.4283 30.2633 9.585 29.47C7.765 28.7 6.155 27.6267 4.755 26.25C3.37833 24.85 2.29333 23.24 1.5 21.42C0.73 19.5767 0.345 17.605 0.345 15.505C0.345 13.405 0.73 11.445 1.5 9.625C2.29333 7.78167 3.37833 6.17167 4.755 4.795C6.155 3.395 7.765 2.31 9.585 1.54C11.4283 0.746666 13.4 0.349999 15.5 0.349999C17.6 0.349999 19.56 0.746666 21.38 1.54C23.2233 2.31 24.8333 3.395 26.21 4.795C27.61 6.17167 28.695 7.78167 29.465 9.625C30.2583 11.445 30.655 13.405 30.655 15.505C30.655 17.605 30.2583 19.5767 29.465 21.42C28.695 23.24 27.61 24.85 26.21 26.25C24.8333 27.6267 23.2233 28.7 21.38 29.47C19.56 30.2633 17.6 30.66 15.5 30.66ZM15.5 27.545C17.18 27.545 18.7433 27.2417 20.19 26.635C21.6367 26.005 22.9083 25.1417 24.005 24.045C25.125 22.925 25.9883 21.6417 26.595 20.195C27.225 18.725 27.54 17.1617 27.54 15.505C27.54 13.825 27.225 12.2617 26.595 10.815C25.9883 9.36833 25.125 8.09667 24.005 7C22.9083 5.88 21.625 5.01667 20.155 4.41C18.7083 3.78 17.1567 3.465 15.5 3.465C13.82 3.465 12.2567 3.78 10.81 4.41C9.36333 5.01667 8.08 5.88 6.96 7C5.86333 8.09667 5 9.38 4.37 10.85C3.76333 12.2967 3.46 13.8483 3.46 15.505C3.46 17.185 3.76333 18.7483 4.37 20.195C5 21.6417 5.86333 22.925 6.96 24.045C8.08 25.1417 9.36333 26.005 10.81 26.635C12.28 27.2417 13.8433 27.545 15.5 27.545ZM48.5602 24.255H56.6102L55.9452 28H42.9602L47.3002 3.57H52.2002L48.5602 24.255ZM67.5997 7.385L66.4797 13.72H74.7047L74.0397 17.5H65.8147L64.6597 24.115H73.9347L73.2347 28H59.0247L63.3647 3.535H77.5397L76.8747 7.385H67.5997ZM86.2276 7.385L85.1076 13.72H93.3326L92.6676 17.5H84.4426L83.2876 24.115H92.5626L91.8626 28H77.6526L81.9926 3.535H96.1676L95.5026 7.385H86.2276ZM105.451 3.57L102.791 18.655C102.697 19.3083 102.651 19.7633 102.651 20.02C102.651 21.2333 103.012 22.1667 103.736 22.82C104.459 23.45 105.486 23.765 106.816 23.765C108.402 23.765 109.697 23.3333 110.701 22.47C111.727 21.5833 112.392 20.3117 112.696 18.655L115.356 3.57H120.291L117.631 18.655C117.257 20.755 116.499 22.5283 115.356 23.975C114.212 25.3983 112.824 26.4717 111.191 27.195C109.581 27.895 107.842 28.245 105.976 28.245C103.502 28.245 101.496 27.6033 99.9555 26.32C98.4389 25.0367 97.6805 23.1933 97.6805 20.79C97.6805 20.1367 97.7505 19.425 97.8905 18.655L100.551 3.57H105.451ZM151.66 3.57L147.355 28H142.42L145.22 12.18L135.91 28H132.165L128.42 12.145L125.62 28H120.685L125.025 3.57H130.59L135.175 21.7L146.095 3.57H151.66ZM192.505 3.57L188.2 28H183.265L186.065 12.18L176.755 28H173.01L169.265 12.145L166.465 28H161.53L165.87 3.57H171.435L176.02 21.7L186.94 3.57H192.505ZM202.179 3.57L199.519 18.655C199.426 19.3083 199.379 19.7633 199.379 20.02C199.379 21.2333 199.741 22.1667 200.464 22.82C201.187 23.45 202.214 23.765 203.544 23.765C205.131 23.765 206.426 23.3333 207.429 22.47C208.456 21.5833 209.121 20.3117 209.424 18.655L212.084 3.57H217.019L214.359 18.655C213.986 20.755 213.227 22.5283 212.084 23.975C210.941 25.3983 209.552 26.4717 207.919 27.195C206.309 27.895 204.571 28.245 202.704 28.245C200.231 28.245 198.224 27.6033 196.684 26.32C195.167 25.0367 194.409 23.1933 194.409 20.79C194.409 20.1367 194.479 19.425 194.619 18.655L197.279 3.57H202.179ZM226.688 28.245C224.238 28.245 222.22 27.6967 220.633 26.6C219.07 25.48 218.288 23.9167 218.288 21.91C218.288 21.7 218.312 21.385 218.358 20.965H223.363C223.27 21.945 223.527 22.75 224.133 23.38C224.763 24.01 225.673 24.325 226.863 24.325C228.053 24.325 228.987 24.08 229.663 23.59C230.363 23.0767 230.713 22.3533 230.713 21.42C230.713 20.5567 230.352 19.8683 229.628 19.355C228.928 18.8417 227.82 18.27 226.303 17.64C224.903 17.0567 223.76 16.52 222.873 16.03C222.01 15.54 221.263 14.8633 220.633 14C220.027 13.1133 219.723 12.005 219.723 10.675C219.723 9.15833 220.108 7.84 220.878 6.72C221.672 5.6 222.745 4.73667 224.098 4.13C225.475 3.52333 227.038 3.22 228.788 3.22C230.515 3.22 232.008 3.51167 233.268 4.095C234.552 4.655 235.508 5.46 236.138 6.51C236.792 7.56 237.072 8.785 236.978 10.185H231.763L231.798 9.8C231.798 9.03 231.507 8.4 230.923 7.91C230.363 7.42 229.57 7.175 228.543 7.175C227.447 7.175 226.56 7.43167 225.883 7.945C225.207 8.45833 224.868 9.15833 224.868 10.045C224.868 10.6283 225.055 11.1417 225.428 11.585C225.825 12.005 226.303 12.3783 226.863 12.705C227.423 13.0083 228.228 13.405 229.278 13.895C230.655 14.5017 231.787 15.0733 232.673 15.61C233.56 16.1467 234.318 16.8583 234.948 17.745C235.578 18.6317 235.893 19.7167 235.893 21C235.893 22.4 235.508 23.6483 234.738 24.745C233.992 25.8417 232.918 26.705 231.518 27.335C230.142 27.9417 228.532 28.245 226.688 28.245ZM247.351 7.385L246.231 13.72H254.456L253.791 17.5H245.566L244.411 24.115H253.686L252.986 28H238.776L243.116 3.535H257.291L256.626 7.385H247.351ZM266.574 3.57L263.914 18.655C263.82 19.3083 263.774 19.7633 263.774 20.02C263.774 21.2333 264.135 22.1667 264.859 22.82C265.582 23.45 266.609 23.765 267.939 23.765C269.525 23.765 270.82 23.3333 271.824 22.47C272.85 21.5833 273.515 20.3117 273.819 18.655L276.479 3.57H281.414L278.754 18.655C278.38 20.755 277.622 22.5283 276.479 23.975C275.335 25.3983 273.947 26.4717 272.314 27.195C270.704 27.895 268.965 28.245 267.099 28.245C264.625 28.245 262.619 27.6033 261.079 26.32C259.562 25.0367 258.804 23.1933 258.804 20.79C258.804 20.1367 258.874 19.425 259.014 18.655L261.674 3.57H266.574ZM312.783 3.57L308.478 28H303.543L306.343 12.18L297.033 28H293.288L289.543 12.145L286.743 28H281.808L286.148 3.57H291.713L296.298 21.7L307.218 3.57H312.783ZM334.098 28.245C332.044 28.245 330.224 27.8133 328.638 26.95C327.074 26.0633 325.861 24.85 324.998 23.31C324.134 21.7467 323.703 19.9617 323.703 17.955C323.703 15.155 324.321 12.635 325.558 10.395C326.818 8.155 328.544 6.405 330.738 5.145C332.954 3.86167 335.439 3.22 338.193 3.22C340.269 3.22 342.089 3.65167 343.653 4.515C345.239 5.37833 346.464 6.59167 347.328 8.155C348.191 9.695 348.623 11.4567 348.623 13.44C348.623 16.2867 348.004 18.83 346.768 21.07C345.531 23.31 343.804 25.0717 341.588 26.355C339.371 27.615 336.874 28.245 334.098 28.245ZM334.798 23.73C336.548 23.73 338.088 23.2867 339.418 22.4C340.771 21.5133 341.809 20.3233 342.533 18.83C343.279 17.3133 343.653 15.6683 343.653 13.895C343.653 11.9817 343.116 10.4767 342.043 9.38C340.969 8.28333 339.464 7.735 337.528 7.735C335.801 7.735 334.261 8.17833 332.908 9.065C331.578 9.95167 330.539 11.1417 329.793 12.635C329.069 14.1283 328.708 15.7617 328.708 17.535C328.708 19.4483 329.233 20.965 330.283 22.085C331.356 23.1817 332.861 23.73 334.798 23.73ZM369.558 3.57L368.858 7.42H358.708L357.588 13.825H365.358L364.693 17.605H356.888L355.068 28H350.133L354.473 3.57H369.558ZM393.878 23.345H384.113L381.698 28H376.553L389.678 3.535H395.383L399.828 28H394.648L393.878 23.345ZM393.248 19.53L391.498 9.17L386.108 19.53H393.248ZM416.622 3.57C419.118 3.57 421.008 4.14167 422.292 5.285C423.575 6.405 424.217 7.875 424.217 9.695C424.217 10.1383 424.182 10.5933 424.112 11.06C423.832 12.6467 423.108 14.0933 421.942 15.4C420.798 16.6833 419.258 17.5817 417.322 18.095L421.417 28H415.712L412.072 18.48H409.727L408.047 28H403.112L407.452 3.57H416.622ZM419.072 11.165C419.118 10.745 419.142 10.465 419.142 10.325C419.142 9.43833 418.862 8.75 418.302 8.26C417.742 7.77 416.89 7.525 415.747 7.525H411.652L410.357 14.84H414.452C415.758 14.84 416.797 14.5133 417.567 13.86C418.36 13.2067 418.862 12.3083 419.072 11.165ZM446.498 3.57L445.798 7.42H439.323L435.683 28H430.748L434.388 7.42H427.878L428.578 3.57H446.498ZM452.174 22.785L446.364 32.69H443.144L446.994 22.785H452.174ZM479.84 23.345H470.075L467.66 28H462.515L475.64 3.535H481.345L485.79 28H480.61L479.84 23.345ZM479.21 19.53L477.46 9.17L472.07 19.53H479.21ZM494.674 24.255H502.724L502.059 28H489.074L493.414 3.57H498.314L494.674 24.255ZM510.738 24.255H518.788L518.123 28H505.138L509.478 3.57H514.378L510.738 24.255ZM544.078 3.57C546.574 3.57 548.464 4.14167 549.748 5.285C551.031 6.405 551.673 7.875 551.673 9.695C551.673 10.1383 551.638 10.5933 551.568 11.06C551.288 12.6467 550.564 14.0933 549.398 15.4C548.254 16.6833 546.714 17.5817 544.778 18.095L548.873 28H543.168L539.528 18.48H537.183L535.503 28H530.568L534.908 3.57H544.078ZM546.528 11.165C546.574 10.745 546.598 10.465 546.598 10.325C546.598 9.43833 546.318 8.75 545.758 8.26C545.198 7.77 544.346 7.525 543.203 7.525H539.108L537.813 14.84H541.908C543.214 14.84 544.253 14.5133 545.023 13.86C545.816 13.2067 546.318 12.3083 546.528 11.165ZM562.23 3.57L557.925 28H552.99L557.33 3.57H562.23ZM563.746 15.75C564.166 13.3467 565.087 11.2 566.511 9.31C567.934 7.39666 569.684 5.915 571.761 4.865C573.837 3.79167 576.042 3.255 578.376 3.255C581.129 3.255 583.392 3.93167 585.166 5.285C586.962 6.615 588.047 8.49333 588.421 10.92H582.786C582.412 9.89333 581.782 9.11167 580.896 8.575C580.009 8.03833 578.912 7.77 577.606 7.77C576.159 7.77 574.817 8.09667 573.581 8.75C572.344 9.40333 571.306 10.3367 570.466 11.55C569.626 12.7633 569.066 14.1633 568.786 15.75C568.669 16.31 568.611 16.9517 568.611 17.675C568.611 19.5883 569.171 21.0933 570.291 22.19C571.434 23.2633 572.997 23.8 574.981 23.8C576.824 23.8 578.434 23.2983 579.811 22.295C581.211 21.2917 582.249 19.9033 582.926 18.13H574.526L575.156 14.42H588.386L587.616 18.69C586.986 20.3933 586.006 21.9683 584.676 23.415C583.346 24.8617 581.759 26.0283 579.916 26.915C578.072 27.7783 576.101 28.21 574.001 28.21C571.924 28.21 570.092 27.79 568.506 26.95C566.942 26.11 565.717 24.9433 564.831 23.45C563.967 21.9333 563.536 20.1833 563.536 18.2C563.536 17.4067 563.606 16.59 563.746 15.75ZM614.201 3.57L609.896 28H604.961L606.816 17.535H596.386L594.531 28H589.596L593.936 3.57H598.836L597.051 13.685H607.516L609.301 3.57H614.201ZM635.649 3.57L634.949 7.42H628.474L624.834 28H619.899L623.539 7.42H617.029L617.729 3.57H635.649ZM644.159 28.245C641.709 28.245 639.691 27.6967 638.104 26.6C636.541 25.48 635.759 23.9167 635.759 21.91C635.759 21.7 635.782 21.385 635.829 20.965H640.834C640.741 21.945 640.997 22.75 641.604 23.38C642.234 24.01 643.144 24.325 644.334 24.325C645.524 24.325 646.457 24.08 647.134 23.59C647.834 23.0767 648.184 22.3533 648.184 21.42C648.184 20.5567 647.822 19.8683 647.099 19.355C646.399 18.8417 645.291 18.27 643.774 17.64C642.374 17.0567 641.231 16.52 640.344 16.03C639.481 15.54 638.734 14.8633 638.104 14C637.497 13.1133 637.194 12.005 637.194 10.675C637.194 9.15833 637.579 7.84 638.349 6.72C639.142 5.6 640.216 4.73667 641.569 4.13C642.946 3.52333 644.509 3.22 646.259 3.22C647.986 3.22 649.479 3.51167 650.739 4.095C652.022 4.655 652.979 5.46 653.609 6.51C654.262 7.56 654.542 8.785 654.449 10.185H649.234L649.269 9.8C649.269 9.03 648.977 8.4 648.394 7.91C647.834 7.42 647.041 7.175 646.014 7.175C644.917 7.175 644.031 7.43167 643.354 7.945C642.677 8.45833 642.339 9.15833 642.339 10.045C642.339 10.6283 642.526 11.1417 642.899 11.585C643.296 12.005 643.774 12.3783 644.334 12.705C644.894 13.0083 645.699 13.405 646.749 13.895C648.126 14.5017 649.257 15.0733 650.144 15.61C651.031 16.1467 651.789 16.8583 652.419 17.745C653.049 18.6317 653.364 19.7167 653.364 21C653.364 22.4 652.979 23.6483 652.209 24.745C651.462 25.8417 650.389 26.705 648.989 27.335C647.612 27.9417 646.002 28.245 644.159 28.245ZM679.122 3.57C681.618 3.57 683.508 4.14167 684.792 5.285C686.075 6.405 686.717 7.875 686.717 9.695C686.717 10.1383 686.682 10.5933 686.612 11.06C686.332 12.6467 685.608 14.0933 684.442 15.4C683.298 16.6833 681.758 17.5817 679.822 18.095L683.917 28H678.212L674.572 18.48H672.227L670.547 28H665.612L669.952 3.57H679.122ZM681.572 11.165C681.618 10.745 681.642 10.465 681.642 10.325C681.642 9.43833 681.362 8.75 680.802 8.26C680.242 7.77 679.39 7.525 678.247 7.525H674.152L672.857 14.84H676.952C678.258 14.84 679.297 14.5133 680.067 13.86C680.86 13.2067 681.362 12.3083 681.572 11.165ZM696.608 7.385L695.488 13.72H703.713L703.048 17.5H694.823L693.668 24.115H702.943L702.243 28H688.033L692.373 3.535H706.548L705.883 7.385H696.608ZM715.936 28.245C713.486 28.245 711.468 27.6967 709.881 26.6C708.318 25.48 707.536 23.9167 707.536 21.91C707.536 21.7 707.56 21.385 707.606 20.965H712.611C712.518 21.945 712.775 22.75 713.381 23.38C714.011 24.01 714.921 24.325 716.111 24.325C717.301 24.325 718.235 24.08 718.911 23.59C719.611 23.0767 719.961 22.3533 719.961 21.42C719.961 20.5567 719.6 19.8683 718.876 19.355C718.176 18.8417 717.068 18.27 715.551 17.64C714.151 17.0567 713.008 16.52 712.121 16.03C711.258 15.54 710.511 14.8633 709.881 14C709.275 13.1133 708.971 12.005 708.971 10.675C708.971 9.15833 709.356 7.84 710.126 6.72C710.92 5.6 711.993 4.73667 713.346 4.13C714.723 3.52333 716.286 3.22 718.036 3.22C719.763 3.22 721.256 3.51167 722.516 4.095C723.8 4.655 724.756 5.46 725.386 6.51C726.04 7.56 726.32 8.785 726.226 10.185H721.011L721.046 9.8C721.046 9.03 720.755 8.4 720.171 7.91C719.611 7.42 718.818 7.175 717.791 7.175C716.695 7.175 715.808 7.43167 715.131 7.945C714.455 8.45833 714.116 9.15833 714.116 10.045C714.116 10.6283 714.303 11.1417 714.676 11.585C715.073 12.005 715.551 12.3783 716.111 12.705C716.671 13.0083 717.476 13.405 718.526 13.895C719.903 14.5017 721.035 15.0733 721.921 15.61C722.808 16.1467 723.566 16.8583 724.196 17.745C724.826 18.6317 725.141 19.7167 725.141 21C725.141 22.4 724.756 23.6483 723.986 24.745C723.24 25.8417 722.166 26.705 720.766 27.335C719.39 27.9417 717.78 28.245 715.936 28.245ZM736.599 7.385L735.479 13.72H743.704L743.039 17.5H734.814L733.659 24.115H742.934L742.234 28H728.024L732.364 3.535H746.539L745.874 7.385H736.599ZM760.162 3.57C762.658 3.57 764.548 4.14167 765.832 5.285C767.115 6.405 767.757 7.875 767.757 9.695C767.757 10.1383 767.722 10.5933 767.652 11.06C767.372 12.6467 766.648 14.0933 765.482 15.4C764.338 16.6833 762.798 17.5817 760.862 18.095L764.957 28H759.252L755.612 18.48H753.267L751.587 28H746.652L750.992 3.57H760.162ZM762.612 11.165C762.658 10.745 762.682 10.465 762.682 10.325C762.682 9.43833 762.402 8.75 761.842 8.26C761.282 7.77 760.43 7.525 759.287 7.525H755.192L753.897 14.84H757.992C759.298 14.84 760.337 14.5133 761.107 13.86C761.9 13.2067 762.402 12.3083 762.612 11.165ZM776.739 3.57L779.994 22.995L790.144 3.57H795.359L782.094 28H776.144L771.489 3.57H776.739ZM802.531 7.385L801.411 13.72H809.636L808.971 17.5H800.746L799.591 24.115H808.866L808.166 28H793.956L798.296 3.535H812.471L811.806 7.385H802.531ZM825.464 3.57C827.728 3.57 829.676 3.96667 831.309 4.76C832.966 5.53 834.226 6.63833 835.089 8.085C835.976 9.53167 836.419 11.2467 836.419 13.23C836.419 14.1167 836.338 14.98 836.174 15.82C835.754 18.27 834.844 20.4167 833.444 22.26C832.068 24.08 830.318 25.4917 828.194 26.495C826.071 27.4983 823.714 28 821.124 28H812.584L816.924 3.57H825.464ZM821.684 24.01C824.251 24.01 826.351 23.2867 827.984 21.84C829.641 20.3933 830.703 18.3867 831.169 15.82C831.286 15.05 831.344 14.385 831.344 13.825C831.344 11.865 830.761 10.3483 829.594 9.275C828.451 8.20167 826.771 7.665 824.554 7.665H821.124L818.254 24.01H821.684ZM839.807 28.245C839.037 28.245 838.419 28.0233 837.952 27.58C837.485 27.1367 837.252 26.5767 837.252 25.9C837.252 24.9667 837.602 24.1733 838.302 23.52C839.025 22.8433 839.865 22.505 840.822 22.505C841.592 22.505 842.199 22.7267 842.642 23.17C843.109 23.59 843.342 24.15 843.342 24.85C843.342 25.7833 842.992 26.5883 842.292 27.265C841.592 27.9183 840.764 28.245 839.807 28.245Z" fill="white"/>
</svg>
